<svg width="5500" height="5500" viewBox="0 0 5500 5500" fill="none" xmlns="http://www.w3.org/2000/svg">
<rect width="5500" height="5500" fill="white"/>
<rect x="300" y="300" width="4900" height="4900" rx="300" fill="white" stroke="black" stroke-width="100"/>
<path d="M1510 2704.04C1556.38 2121.95 2270.07 1500.39 2826.88 1410C3172.42 1524.42 2723.81 1741.52 2585.82 1815.89C2255.74 2044.72 1627.36 2463.76 1886.73 2922.28C2135.51 3236.93 2368.83 3823.31 2862.37 3554.43C3059.05 3444.02 3329.29 3385.67 3482.74 3231.21C3428.63 2589.91 3368.23 2014.69 2662.27 2633.67C2358.24 2814.73 2298.11 3159.41 2742.13 3112.79C2789.65 3090.48 2888.14 3050.43 2866.66 2981.21C2855.19 2926.84 2848.01 2871.66 2845.19 2816.17C2850.63 2679.72 3058.76 2673.15 3077.66 2809.59C3198.75 3108.21 2929.36 3371.65 2628.77 3322.17C2087.7 3307.87 2091.14 2612.51 2463.88 2365.37C3373.38 1575.04 3936.49 2186.59 3987.74 3208.9C4079.06 3728.63 3210.49 3949.45 2826.31 4067.01C2565.51 4115.06 2353.66 4028.4 2189.34 3830.17C1946 3488.93 1531.76 3135.67 1510 2704.04Z" fill="black"/>
</svg>
